<svg width="44" height="49" viewBox="0 0 44 49" fill="none" xmlns="http://www.w3.org/2000/svg">
<path d="M2 12.203V23.6019C2 27.5655 2.99001 31.4663 4.88016 34.9502C7.30367 39.4172 11.0936 42.991 15.695 45.1484L17.7549 46.1141C20.4445 47.3752 23.5555 47.3752 26.2451 46.1141L28.305 45.1483C32.9064 42.991 36.6963 39.4172 39.1198 34.9502C41.01 31.4663 42 27.5655 42 23.6019V12.203C42 11.2756 41.3447 10.4775 40.4351 10.2969L38.7543 9.96331C33.1398 8.84884 27.9483 6.18789 23.7653 2.28052C22.7715 1.35223 21.2285 1.35223 20.2347 2.28052C16.0517 6.18789 10.8602 8.84884 5.24565 9.96331L3.56493 10.2969C2.65529 10.4775 2 11.2756 2 12.203Z" fill="#DC77B2" stroke="#745CAD" stroke-width="2"/>
<path d="M22 46.5471C23.3051 46.5471 24.6103 46.2633 25.8206 45.6959L28.0224 44.6636C32.5367 42.547 36.255 39.0408 38.6327 34.6583C40.4871 31.2403 41.4583 27.4133 41.4583 23.5247V11.8508C41.4583 11.3897 41.1326 10.993 40.6804 10.9032L38.9591 10.5615C33.022 9.38303 27.5321 6.56918 23.1088 2.4373C22.7967 2.14577 22.3983 2 22 2V46.5471Z" fill="#C55C98"/>
<path d="M25.0001 34.5L26.9033 32.8908C31.1864 29.2694 35.4922 24.5908 34.7917 19.0258C34.5905 17.4277 34.0353 15.9127 32.9682 14.6378C30.0244 11.1207 24.9439 11.9829 22.0001 15.5C19.0562 11.9829 13.4439 11.1207 10.5001 14.6378C7.55618 18.1549 8.50007 23 11.2772 27.3743L12.7112 29.2851C15.5258 33.0355 19.233 36.0231 23.496 37.9763V37.9763C26.4289 39.3201 29.5186 40.2912 32.693 40.8668L33.4278 41" stroke="white" stroke-width="2" stroke-linecap="round" stroke-linejoin="round"/>
<path d="M17.9533 39.8913C18.4456 39.641 18.6417 39.039 18.3913 38.5467C18.141 38.0544 17.539 37.8583 17.0467 38.1087L17.9533 39.8913ZM17.0467 38.1087L15.0331 39.1327L15.9397 40.9154L17.9533 39.8913L17.0467 38.1087ZM15.0331 39.1327C13.2047 40.0626 11.2405 40.6968 9.21361 41.0119L9.52076 42.9881C11.7565 42.6407 13.923 41.9411 15.9397 40.9154L15.0331 39.1327Z" fill="white"/>
<path d="M1.85 12.203V23.6019C1.85 27.5905 2.84625 31.5159 4.74831 35.0217C7.18711 39.5169 11.0009 43.1132 15.6313 45.2842L17.6912 46.25C20.4212 47.5299 23.5788 47.5299 26.3088 46.25L28.3687 45.2842C32.9991 43.1132 36.8129 39.5169 39.2517 35.0217C41.1537 31.5159 42.15 27.5905 42.15 23.6019V12.203C42.15 11.2041 41.4441 10.3443 40.4643 10.1498L38.7836 9.81618C33.1964 8.70715 28.0303 6.05919 23.8677 2.17091L23.0826 3.0113L23.8677 2.17091C22.8162 1.18877 21.1838 1.18877 20.1323 2.17091C15.9697 6.05919 10.8036 8.70715 5.21645 9.81618L3.53573 10.1498C2.55587 10.3443 1.85 11.2041 1.85 12.203Z" stroke="#745CAD" stroke-width="2.3"/>
</svg>
