<svg width="49" height="33" viewBox="0 0 49 33" fill="none" xmlns="http://www.w3.org/2000/svg">
<path d="M32.1574 16.183L46.4233 6.11295C47.0857 5.64537 48 6.1191 48 6.92992V27.0701C48 27.8809 47.0857 28.3546 46.4233 27.887L32.1574 17.817C31.5929 17.4186 31.5929 16.5814 32.1574 16.183Z" fill="#DC77B2" stroke="#534496" stroke-width="2"/>
<rect x="1" y="1" width="35" height="31" rx="4" fill="#AC9ED6" stroke="#534496" stroke-width="2"/>
<path d="M36 30V5.5L2.51028 27.0291C1.65113 27.5814 1.34617 28.6924 1.80294 29.6059L3 32H34C35.1046 32 36 31.1046 36 30Z" fill="#8775C5"/>
<rect x="1" y="1" width="35" height="31" rx="5" stroke="#534496" stroke-width="2"/>
<path d="M10 16.5H29.5M19.5 7V26.5" stroke="white" stroke-width="2"/>
</svg>
