<svg width="50" height="45" viewBox="0 0 50 45" fill="none" xmlns="http://www.w3.org/2000/svg">
<path d="M28 11C28 17.3513 23.299 23 17.5 23C11.701 23 7 17.3513 7 11C7 4.64873 11.701 0 17.5 0C23.299 0 28 4.64873 28 11Z" fill="#1E2A45"/>
<path d="M45 15.1739C45 19.316 42.0899 23 38.5 23C34.9101 23 32 19.316 32 15.1739C32 11.0318 34.9101 8 38.5 8C42.0899 8 45 11.0318 45 15.1739Z" fill="#1E2A45"/>
<path d="M35 38.1707C35 44.9059 27.6511 45 17.9861 45C8.32113 45 0 44.9059 0 38.1707C0 28.9024 7.83502 25 17.5 25C27.165 25 35 28.9024 35 38.1707Z" fill="#1E2A45"/>
<path d="M38.2215 40.7474C37.5896 40.6472 37.2848 39.9558 37.4205 39.3306C37.5929 38.5362 37.6283 37.4512 37.5 35.5369C37.3325 33.0377 35.9224 29.8471 33.0423 27.672C32.3515 27.1503 32.4287 26.0285 33.2727 25.8367C34.5931 25.5367 36.0164 25.3925 37.5 25.3925C44.4036 25.3925 50 28.1223 50 35.5369C50 40.925 45 41 43 41C41.4072 41 39.8143 41 38.2215 40.7474Z" fill="#1E2A45"/>
</svg>
