<svg width="47" height="44" viewBox="0 0 47 44" fill="none" xmlns="http://www.w3.org/2000/svg">
<rect x="5.78735" y="13" width="35.4255" height="29" rx="3" fill="#F2EFEC"/>
<g style="mix-blend-mode:darken" opacity="0.65">
<path d="M4.65109 16H42.349C42.5146 16 42.649 16.1343 42.649 16.3V21.6471H40.9182C37.1584 21.6471 39.541 24 35.2441 24C31.4844 24 33.0131 21.8039 29.8869 21.8039C26.7607 21.8039 27.9451 24 23.9788 24C20.0124 24 21.3189 21.8039 18.2341 21.8039C15.1492 21.8039 16.7862 24 12.4894 24C8.19258 24 10.799 21.8039 7.03924 21.8039H4.35107L4.35109 16.3C4.35109 16.1343 4.48541 16 4.65109 16Z" fill="#D4D1D2"/>
</g>
<rect x="4.78711" y="12" width="37.4255" height="31" rx="4" stroke="#82868F" stroke-width="2"/>
<path d="M1 11.3C1 11.1343 1.13431 11 1.3 11H45.7C45.8657 11 46 11.1343 46 11.3V15.6667C46 17.5076 45.6129 19 43.1277 19C40.6424 19 41.6915 16.3333 38.3404 16.3333C34.9894 16.3333 36.0385 19 33.5532 19C31.0679 19 32.117 16.3333 28.766 16.3333C25.4149 16.3333 26.8511 19 23.5 19C20.1489 19 21.5851 16.3333 18.234 16.3333C14.883 16.3333 15.9321 19 13.4468 19C10.9615 19 12.0106 16.3333 8.65957 16.3333C5.30851 16.3333 6.35761 19 3.87234 19C1.38707 19 1 17.5076 1 15.6667V11.3Z" fill="#57A08E" stroke="#3D6459" stroke-width="2"/>
<path d="M6.02 1H40.52L46 11H1L6.02 1Z" fill="#6DB8A7" stroke="#3D6459" stroke-width="2" stroke-linejoin="round"/>
<path d="M18.2341 29.6C18.2341 28.7163 18.9505 28 19.8341 28H28.1235C29.0071 28 29.7235 28.7163 29.7235 29.6V42H18.2341V29.6Z" fill="#6DB8A7"/>
<path d="M18.2341 35.5V28H28.2873L18.2341 35.5Z" fill="#57A08E"/>
<path d="M29.7235 42.9H30.6235V42V29.6C30.6235 28.2193 29.5042 27.1 28.1235 27.1H19.8341C18.4534 27.1 17.3341 28.2193 17.3341 29.6V42V42.9H18.2341H29.7235Z" stroke="#3F6A5E" stroke-width="1.8"/>
</svg>
