<svg width="52" height="52" viewBox="0 0 52 52" fill="none" xmlns="http://www.w3.org/2000/svg">
<path d="M26 46.9562C38.7025 46.9562 49 37.1162 49 24.9781C49 12.8399 38.7025 3 26 3C13.2975 3 3 12.8399 3 24.9781C3 32.0155 6.46143 38.2805 11.8462 42.303V48.033C11.8462 48.391 12.2114 48.633 12.5411 48.4934L18.7797 45.8514C21.0505 46.5682 23.4778 46.9562 26 46.9562Z" fill="url(#paint0_linear)"/>
<path d="M19.7887 20.8635L13.2389 31.5006C12.7574 32.2825 13.7578 33.1271 14.4479 32.5212L20.2234 27.4511C20.9276 26.833 21.9664 26.7866 22.7229 27.3394L27.4323 30.7809C28.8261 31.7994 30.7898 31.4344 31.7245 29.983L38.6396 19.2453C39.1268 18.4887 38.1872 17.6284 37.4764 18.1802L31.1457 23.0954C30.4631 23.6254 29.5172 23.657 28.8007 23.1737L24.0209 19.9494C22.6069 18.9955 20.6831 19.411 19.7887 20.8635Z" fill="white"/>
<path d="M26 48.2062C39.3388 48.2062 50.25 37.8595 50.25 24.9781C50.25 12.0966 39.3388 1.75 26 1.75C12.6612 1.75 1.75 12.0966 1.75 24.9781C1.75 32.2174 5.20663 38.6689 10.5962 42.9192V48.033C10.5962 49.2861 11.8747 50.1331 13.0286 49.6444L18.8491 47.1795C21.1113 47.8472 23.5131 48.2062 26 48.2062Z" stroke="#3866B5" stroke-width="2.5"/>
<defs>
<linearGradient id="paint0_linear" x1="26" y1="3" x2="26" y2="48.5335" gradientUnits="userSpaceOnUse">
<stop stop-color="#4CAFF7"/>
<stop offset="1" stop-color="#307DF6"/>
</linearGradient>
</defs>
</svg>
