<svg width="51" height="51" viewBox="0 0 51 51" fill="none" xmlns="http://www.w3.org/2000/svg">
<ellipse cx="22.5" cy="25.5" rx="20.5" ry="21.5" fill="#67B2F1"/>
<path fill-rule="evenodd" clip-rule="evenodd" d="M25.5 49C38.4787 49 49 38.4787 49 25.5C49 12.5213 38.4787 2 25.5 2C12.5213 2 2 12.5213 2 25.5C2 38.4787 12.5213 49 25.5 49ZM42.7405 23.9719C45.5 36 35.0724 45 23.3056 45C11.5388 45 2.50003 36.604 2.50003 25C2.50003 22.4221 3.8322 17.6706 3.8322 17.6706C3.8322 17.6706 8.50132 21.093 11 19.5C11 19.5 16.1085 8.54548 28 10.5C39.8915 12.4545 42.7405 23.9719 42.7405 23.9719Z" fill="white"/>
<path d="M42.7405 23.9719L43.9101 23.7036L43.9079 23.6937L43.9054 23.6838L42.7405 23.9719ZM3.8322 17.6706L4.54162 16.7028L3.14442 15.6786L2.67676 17.3467L3.8322 17.6706ZM11 19.5L11.6451 20.5119L11.9398 20.324L12.0876 20.0072L11 19.5ZM47.8 25.5C47.8 37.8159 37.8159 47.8 25.5 47.8V50.2C39.1414 50.2 50.2 39.1414 50.2 25.5H47.8ZM25.5 3.2C37.8159 3.2 47.8 13.184 47.8 25.5H50.2C50.2 11.8586 39.1414 0.8 25.5 0.8V3.2ZM3.2 25.5C3.2 13.184 13.184 3.2 25.5 3.2V0.8C11.8586 0.8 0.8 11.8586 0.8 25.5H3.2ZM25.5 47.8C13.184 47.8 3.2 37.8159 3.2 25.5H0.8C0.8 39.1414 11.8586 50.2 25.5 50.2V47.8ZM23.3056 46.2C29.4821 46.2 35.3453 43.8406 39.3213 39.8427C43.3217 35.8201 45.3891 30.15 43.9101 23.7036L41.5709 24.2403C42.8515 29.822 41.0848 34.6659 37.6195 38.1503C34.1298 41.6594 28.8959 43.8 23.3056 43.8V46.2ZM1.30003 25C1.30003 37.3223 10.9331 46.2 23.3056 46.2V43.8C12.1446 43.8 3.70003 35.8857 3.70003 25H1.30003ZM3.8322 17.6706C2.67676 17.3467 2.67673 17.3467 2.6767 17.3469C2.67668 17.3469 2.67664 17.3471 2.67661 17.3472C2.67654 17.3474 2.67645 17.3478 2.67634 17.3482C2.67611 17.349 2.67581 17.35 2.67543 17.3514C2.67467 17.3541 2.67359 17.358 2.67221 17.363C2.66944 17.3729 2.66545 17.3873 2.66031 17.406C2.65004 17.4433 2.63519 17.4976 2.61642 17.5671C2.57889 17.7062 2.52562 17.9065 2.46185 18.1545C2.33446 18.6499 2.1645 19.3383 1.99428 20.1101C1.66124 21.6202 1.30003 23.5668 1.30003 25H3.70003C3.70003 23.8552 4.0049 22.1372 4.33795 20.627C4.50077 19.8888 4.66385 19.2282 4.78625 18.7521C4.84738 18.5144 4.89818 18.3234 4.9335 18.1925C4.95116 18.1271 4.96493 18.0768 4.97417 18.0432C4.97879 18.0264 4.98228 18.0138 4.98456 18.0057C4.98569 18.0016 4.98652 17.9986 4.98704 17.9967C4.9873 17.9958 4.98748 17.9951 4.98759 17.9948C4.98764 17.9946 4.98767 17.9945 4.98768 17.9945C4.98768 17.9944 4.98768 17.9945 4.98768 17.9945C4.98767 17.9945 4.98765 17.9946 3.8322 17.6706ZM10.3549 18.4881C10.0482 18.6837 9.60132 18.7724 8.97206 18.6951C8.3451 18.6182 7.64799 18.3885 6.96576 18.0858C6.29149 17.7866 5.68003 17.438 5.23368 17.1609C5.01194 17.0233 4.83441 16.9055 4.71419 16.8234C4.65416 16.7824 4.60864 16.7505 4.57928 16.7297C4.56461 16.7193 4.55399 16.7117 4.54764 16.7071C4.54447 16.7048 4.54236 16.7033 4.54135 16.7026C4.54084 16.7022 4.54061 16.702 4.54065 16.7021C4.54068 16.7021 4.54077 16.7021 4.54093 16.7023C4.54101 16.7023 4.54118 16.7024 4.54122 16.7025C4.54141 16.7026 4.54162 16.7028 3.8322 17.6706C3.12279 18.6385 3.12303 18.6386 3.12329 18.6388C3.1234 18.6389 3.12368 18.6391 3.12391 18.6393C3.12435 18.6396 3.12487 18.64 3.12546 18.6404C3.12663 18.6413 3.1281 18.6423 3.12985 18.6436C3.13334 18.6461 3.13797 18.6495 3.1437 18.6536C3.15517 18.6619 3.17108 18.6733 3.19122 18.6876C3.23148 18.7161 3.28871 18.7562 3.36123 18.8057C3.50612 18.9046 3.71288 19.0417 3.96791 19.2C4.4751 19.5148 5.18709 19.9222 5.99243 20.2796C6.78982 20.6333 7.72849 20.9605 8.67974 21.0773C9.6287 21.1937 10.7025 21.1128 11.6451 20.5119L10.3549 18.4881ZM28.1946 9.31587C21.8046 8.2656 17.2009 10.7008 14.2367 13.3762C12.7635 14.7059 11.6908 16.0961 10.9857 17.153C10.6324 17.6827 10.3689 18.1323 10.1917 18.4541C10.103 18.6151 10.0357 18.7444 9.98934 18.8361C9.96616 18.8819 9.9482 18.9184 9.93541 18.9448C9.92901 18.9579 9.9239 18.9686 9.92008 18.9766C9.91817 18.9807 9.91657 18.984 9.9153 18.9867C9.91467 18.9881 9.91411 18.9893 9.91363 18.9903C9.9134 18.9908 9.9131 18.9914 9.91298 18.9917C9.9127 18.9923 9.91244 18.9928 11 19.5C12.0876 20.0072 12.0873 20.0076 12.0871 20.0081C12.0871 20.0082 12.0869 20.0085 12.0868 20.0087C12.0867 20.0091 12.0866 20.0093 12.0866 20.0093C12.0865 20.0093 12.0868 20.0087 12.0874 20.0075C12.0886 20.005 12.091 20 12.0946 19.9925C12.1019 19.9775 12.1141 19.9527 12.1312 19.9188C12.1655 19.851 12.2196 19.7469 12.2938 19.6121C12.4424 19.3425 12.6709 18.9516 12.9823 18.4848C13.6067 17.5488 14.5543 16.3225 15.8447 15.1579C18.4076 12.8446 22.3039 10.7799 27.8054 11.6841L28.1946 9.31587ZM42.7405 23.9719C43.9054 23.6838 43.9053 23.6832 43.9051 23.6826C43.905 23.6823 43.9049 23.6816 43.9047 23.6811C43.9045 23.68 43.9042 23.6788 43.9038 23.6774C43.9031 23.6746 43.9022 23.671 43.9011 23.6668C43.899 23.6584 43.8961 23.6472 43.8924 23.6333C43.8851 23.6055 43.8747 23.567 43.8611 23.5183C43.8339 23.4211 43.7936 23.2833 43.7387 23.1103C43.629 22.7645 43.4605 22.2765 43.2207 21.6885C42.7419 20.5147 41.9735 18.93 40.8109 17.2782C38.4791 13.9655 34.5379 10.3585 28.1946 9.31587L27.8054 11.6841C33.3536 12.596 36.7826 15.7249 38.8483 18.6596C39.8843 20.1315 40.5715 21.5483 40.9984 22.595C41.2115 23.1173 41.3585 23.5445 41.4511 23.8361C41.4973 23.9818 41.5298 24.0934 41.5501 24.1659C41.5603 24.2021 41.5673 24.2284 41.5715 24.2444C41.5736 24.2523 41.575 24.2577 41.5757 24.2603C41.576 24.2616 41.5762 24.2623 41.5762 24.2622C41.5762 24.2622 41.5761 24.262 41.576 24.2617C41.576 24.2615 41.5759 24.2611 41.5759 24.261C41.5757 24.2606 41.5756 24.2601 42.7405 23.9719Z" fill="#374E81"/>
<path d="M15.5858 22H4C3.44772 22 3 21.5523 3 21V9.41421C3 8.52331 4.07714 8.07714 4.70711 8.70711L7.82143 11.8214L10.7679 14.7679L13.7143 17.7143L16.2929 20.2929C16.9229 20.9229 16.4767 22 15.5858 22Z" fill="white"/>
<path d="M6.19724 11.892C6.68985 12.3353 7.4486 12.2954 7.89195 11.8028C8.3353 11.3101 8.29537 10.5514 7.80276 10.108L6.19724 11.892ZM13.8072 15.6121C13.3168 15.1663 12.5579 15.2024 12.1121 15.6928C11.6663 16.1832 11.7024 16.9421 12.1928 17.3879L13.8072 15.6121ZM3.46722 22.7H15.9134V20.3H3.46722V22.7ZM0.878954 8.88861L1.26844 20.5733L3.66711 20.4933L3.27762 8.80866L0.878954 8.88861ZM7.80276 10.108L4.54946 7.18008L2.94394 8.96398L6.19724 11.892L7.80276 10.108ZM17.3933 18.8721L13.8072 15.6121L12.1928 17.3879L15.7789 20.648L17.3933 18.8721ZM3.27762 8.80866C3.27855 8.83652 3.2693 8.88227 3.24138 8.92535C3.21692 8.96308 3.1875 8.98483 3.16213 8.99664C3.13676 9.00845 3.10117 9.01695 3.05656 9.01138C3.00562 9.00501 2.96466 8.98263 2.94394 8.96398L4.54946 7.18008C3.10775 5.88254 0.814336 6.95006 0.878954 8.88861L3.27762 8.80866ZM15.9134 22.7C17.9243 22.7 18.8812 20.2248 17.3933 18.8721L15.7789 20.648C15.7589 20.6298 15.7312 20.5896 15.7201 20.5364C15.7105 20.4904 15.7169 20.4536 15.7268 20.4279C15.7368 20.4022 15.7568 20.3706 15.7949 20.343C15.8389 20.3111 15.8864 20.3 15.9134 20.3V22.7ZM3.46722 20.3C3.57509 20.3 3.66352 20.3855 3.66711 20.4933L1.26844 20.5733C1.30797 21.7591 2.28073 22.7 3.46722 22.7V20.3Z" fill="#374E81"/>
<path d="M24 16.5V27L33 36" stroke="#36497B" stroke-width="2.4" stroke-linecap="round"/>
</svg>
