<svg width="46" height="46" viewBox="0 0 46 46" fill="none" xmlns="http://www.w3.org/2000/svg">
<path fill-rule="evenodd" clip-rule="evenodd" d="M46 21.9781C46 34.1162 35.7025 43.9562 23 43.9562C20.4778 43.9562 18.0505 43.5682 15.7797 42.8514L9.54114 45.4934C9.21145 45.633 8.84615 45.391 8.84615 45.033V39.303C3.46143 35.2805 0 29.0155 0 21.9781C0 9.83992 10.2975 0 23 0C35.7025 0 46 9.83992 46 21.9781ZM10.2389 28.5006L16.7887 17.8635C17.683 16.411 19.6068 15.9955 21.0209 16.9494L25.8007 20.1737C26.5171 20.657 27.463 20.6254 28.1457 20.0954L34.4764 15.1802C35.1872 14.6284 36.1268 15.4887 35.6396 16.2453L28.7245 26.983C27.7898 28.4344 25.826 28.7994 24.4322 27.7809L19.7229 24.3394C18.9664 23.7866 17.9275 23.833 17.2234 24.4511L11.4479 29.5212C10.7578 30.1271 9.7574 29.2825 10.2389 28.5006Z" fill="#1E2A45"/>
</svg>
