<svg width="48" height="48" viewBox="0 0 48 48" fill="none" xmlns="http://www.w3.org/2000/svg">
<rect x="1.85" y="1.85" width="44.3" height="44.3" rx="6.15" fill="white" stroke="#828790" stroke-width="2.3"/>
<ellipse cx="12.5869" cy="11.6739" rx="5.02174" ry="5.02174" fill="#4A85F6"/>
<line x1="19.8406" y1="8.85" x2="39.9275" y2="8.85" stroke="#8E929B" stroke-width="2.3"/>
<line x1="19.8406" y1="13.5166" x2="39.9275" y2="13.5166" stroke="#8E929B" stroke-width="2.3"/>
<path d="M3 20.2609H2V21.2609V40C2 43.3137 4.68629 46 8 46H40C43.3137 46 46 43.3137 46 40V21.2609V20.2609H45H3Z" fill="#4A85F6" stroke="#385B8F" stroke-width="2"/>
<path d="M31.2267 27.9736C32.3965 26.7898 34.3064 26.7844 35.4828 27.9617L43.0179 35.5024L43.9096 36.3918C44.9677 37.4471 45.0877 39.1203 44.1911 40.3159L41.9588 43.2923C41.5263 43.8689 40.9007 44.2705 40.1964 44.4237L33.6639 45.8445C33.4544 45.8901 33.2406 45.9131 33.0263 45.9131H20.682C18.0179 45.9131 16.6755 42.6994 18.548 40.8044L31.2267 27.9736Z" fill="#71C3E6"/>
<path d="M29.9348 45.9131L38.6087 31.3044L45.7543 38.2316L45.0001 44.5L39.5218 45.9131H29.9348Z" fill="#67B1F0"/>
<path d="M13.5 45.9131L31.2092 27.9914C32.3857 26.8007 34.3092 26.8032 35.4826 27.997L45.913 38.6087" stroke="#2D5692" stroke-width="2.3"/>
<path d="M16.6957 35.4131L28.1087 45.4566L6.19568 45L16.6957 35.4131Z" fill="#71C3E6"/>
<path d="M16.2391 46.3696L18.4622 36.2467L28.1087 45.9131L16.2391 46.3696Z" fill="#67B1F0"/>
<path d="M28.5652 45.9131L18.3393 36.0724C17.5735 35.3354 16.3649 35.3261 15.5879 36.0514L6 45" stroke="#2D5692" stroke-width="2.3"/>
<path d="M3 20.1109H1.85V21.2609V40C1.85 43.3965 4.60345 46.15 8 46.15H40C43.3965 46.15 46.15 43.3965 46.15 40V21.2609V20.1109H45H3Z" stroke="#385B8F" stroke-width="2.3"/>
</svg>
