<svg width="44" height="51" viewBox="0 0 44 51" fill="none" xmlns="http://www.w3.org/2000/svg">
<path fill-rule="evenodd" clip-rule="evenodd" d="M15.7116 9.35884C15.2559 8.49609 15 7.52579 15 6.5C15 2.91015 18.134 0 22 0C25.866 0 29 2.91015 29 6.5C29 7.45975 28.776 8.37091 28.3739 9.19088C33.8431 11.4201 37.6688 16.5402 37.6688 22.5C37.6688 23.4155 37.5785 24.3112 37.4058 25.1796C37.2217 26.1059 37.357 27.0839 37.9069 27.8517L43.0403 35.0184C45.4033 38.3174 43.1328 43 39.1701 43H4.82986C0.867191 43 -1.40333 38.3174 0.959708 35.0184L6.47346 27.3207C7.00118 26.5839 7.14785 25.6512 6.99918 24.7572C6.87685 24.0217 6.81336 23.2678 6.81336 22.5C6.81336 16.6853 10.455 11.67 15.7116 9.35884ZM24.0682 8.10063C23.469 8.03418 22.8593 8 22.2411 8C21.4735 8 20.719 8.05268 19.9815 8.15441C19.5622 7.71361 19.3077 7.1344 19.3077 6.5C19.3077 5.11929 20.5131 4 22 4C23.4869 4 24.6923 5.11929 24.6923 6.5C24.6923 7.10892 24.4579 7.66699 24.0682 8.10063Z" fill="#1E2A45"/>
<path d="M16.0608 47C16.4767 49.2615 18.9773 51 22 51C25.0227 51 27.5234 49.2615 27.9393 47H16.0608Z" fill="#1E2A45"/>
</svg>
