<svg width="44" height="44" viewBox="0 0 44 44" fill="none" xmlns="http://www.w3.org/2000/svg">
<rect x="1.95" y="1.95" width="40.1" height="40.1" rx="6.05" fill="#67B2F1" stroke="#284F88" stroke-width="2.1"/>
<circle cx="13.4047" cy="13.4047" r="5.07143" fill="#F7D881" stroke="#3B5B87" stroke-width="2"/>
<path d="M32.5273 19.2152C31.447 18.2429 29.7925 18.2941 28.7744 19.3314L17.4698 30.8492L12.9969 26.7874L1.64282 37.4899L4.35711 41.9048L30.1428 42.3572L39.4559 40.7021C40.4284 40.331 41.103 39.4365 41.1924 38.3995L41.8643 30.612C41.891 30.3016 41.8642 29.9888 41.7848 29.6875L41.2526 27.6665C41.1179 27.155 40.8367 26.6941 40.4436 26.3403L32.5273 19.2152Z" fill="#C8E0A4"/>
<path d="M13.4047 27.9516V26.5238L22 35.1191H24.0683C25.6578 35.1191 27.2 34.5781 28.4412 33.5852L28.5571 33.4925C31.4763 31.1571 32.8491 27.3884 32.1159 23.7226L31.0476 18.381L41.9047 28.3334L41.4523 38.2857L39.6428 41.9048H34.6666H11.1428L15.4957 37.5519C16.1179 36.9297 16.2036 35.9508 15.699 35.23C14.2057 33.0967 13.4047 30.5556 13.4047 27.9516Z" fill="#A8CB76"/>
<path d="M2.09521 36.4762V36.9047C2.09521 39.6662 4.33379 41.9047 7.09521 41.9047H36.9047C39.6662 41.9047 41.9047 39.6662 41.9047 36.9047V28.3333" stroke="#3B623C" stroke-width="2.3"/>
<path d="M17.4761 29.6905L28.5651 18.7247C29.7603 17.5427 31.6934 17.5734 32.8506 18.7927L41.9046 28.3333" stroke="#3B623C" stroke-width="2.1" stroke-linecap="round" stroke-linejoin="round"/>
<path d="M21.8461 34.3393L14.684 27.431C13.9082 26.6827 12.6789 26.6838 11.9045 27.4335L2.09521 36.9286" stroke="#3B623C" stroke-width="2.1" stroke-linecap="round"/>
</svg>
