<svg width="50" height="50" viewBox="0 0 50 50" fill="none" xmlns="http://www.w3.org/2000/svg">
<path fill-rule="evenodd" clip-rule="evenodd" d="M25 50C38.8071 50 50 38.8071 50 25C50 11.1929 38.8071 0 25 0C11.1929 0 0 11.1929 0 25C0 38.8071 11.1929 50 25 50ZM24 25.75C22.4 26.35 22.55 28.95 22.55 28.95V29.6431C22.55 30.5231 22.8177 31.4189 23.5414 31.9195C23.9907 32.2302 24.5639 32.5 25.2 32.5C25.8692 32.5 26.4389 32.2014 26.8647 31.8707C27.4883 31.3863 27.7 30.5786 27.7 29.7889V28.95C29.6667 28.4833 31.2333 27.4833 32.4 25.95C33.6 24.4167 34.2 22.65 34.2 20.65C34.2 18.15 33.3833 16.0833 31.75 14.45C30.1167 12.8167 28.05 12 25.55 12C23.0833 12 21.0333 12.8333 19.4 14.5C17.9406 15.9898 17.1468 17.8402 17.0185 20.0511C16.9936 20.4803 17.0604 20.9142 17.2786 21.2846C17.617 21.859 18.2854 22.65 19.4 22.65C20.6204 22.65 21.4517 21.7017 21.8431 21.1277C22.0285 20.8559 22.1 20.529 22.1 20.2C22.1 19.1 22.4167 18.15 23.05 17.35C23.7167 16.5167 24.5667 16.1 25.6 16.1C27.9667 16.1 29.15 17.55 29.15 20.45C29.15 21.8833 28.6167 23.1333 27.55 24.2C26.8155 24.9115 26.168 25.0936 25.3136 25.3339C24.9271 25.4426 24.4983 25.5631 24 25.75ZM27.5 39.5C28.1333 38.8667 28.45 38.1167 28.45 37.25C28.45 36.35 28.1333 35.6 27.5 35C26.9 34.3667 26.15 34.05 25.25 34.05C24.35 34.05 23.5833 34.3667 22.95 35C22.35 35.6 22.05 36.3333 22.05 37.2C22.05 38.0667 22.3667 38.8167 23 39.45C23.6333 40.0833 24.3833 40.4 25.25 40.4C26.15 40.4 26.9 40.1 27.5 39.5Z" fill="#1E2A45"/>
</svg>
