<svg width="23" height="44" viewBox="0 0 23 44" fill="none" xmlns="http://www.w3.org/2000/svg">
<path d="M4.63339 1.45257C3.77877 0.550476 2.35467 0.511987 1.45257 1.36661C0.550476 2.22123 0.511987 3.64533 1.36661 4.54743L4.63339 1.45257ZM1.36661 39.4526C0.511987 40.3547 0.550476 41.7788 1.45257 42.6334C2.35467 43.488 3.77877 43.4495 4.63339 42.5474L1.36661 39.4526ZM1.36661 4.54743L18.0635 22.1719L21.3303 19.0771L4.63339 1.45257L1.36661 4.54743ZM18.0635 21.8281L1.36661 39.4526L4.63339 42.5474L21.3303 24.9229L18.0635 21.8281ZM18.0635 22.1719C17.9722 22.0755 17.9722 21.9245 18.0635 21.8281L21.3303 24.9229C22.8832 23.2837 22.8832 20.7163 21.3303 19.0771L18.0635 22.1719Z" fill="#606770"/>
</svg>
