<svg width="36" height="36" viewBox="0 0 36 36" fill="none" xmlns="http://www.w3.org/2000/svg">
<path fill-rule="evenodd" clip-rule="evenodd" d="M23.6701 25.9929C21.2858 27.876 18.2741 29 15 29C7.26802 29 1 22.7319 1 15C1 7.26807 7.26802 1 15 1C22.732 1 29 7.26807 29 15C29 18.2742 27.876 21.2858 25.9929 23.6702L33.678 29.5789C33.8999 29.7072 34.1089 29.8663 34.2988 30.0562C35.4704 31.2278 35.4704 33.1272 34.2988 34.2988C33.1272 35.4703 31.2277 35.4703 30.0561 34.2988C29.8663 34.109 29.7072 33.9 29.5789 33.6781L23.6701 25.9929ZM26 15C26 21.0751 21.0751 26 15 26C8.92487 26 4 21.0751 4 15C4 8.92493 8.92487 4 15 4C21.0751 4 26 8.92493 26 15Z" fill="#505664" stroke="#505664"/>
</svg>
