<svg width="48" height="48" viewBox="0 0 48 48" fill="none" xmlns="http://www.w3.org/2000/svg">
<rect x="1.85" y="1.85" width="44.3" height="44.3" rx="6.15" fill="#90949C" stroke="#494949" stroke-width="2.3"/>
<path d="M29 20C28.6347 22.1917 28.2694 23.8497 26.5394 24.9739C25.0255 25.9578 22.9878 25.9547 21.4327 25.0372C19.7266 24.0304 19.3633 22.5432 19 20C19 16.6863 21.2386 14 24 14C26.7614 14 29 16.6863 29 20Z" fill="white"/>
<path d="M33 31.02C33 35.5199 31 36.02 24 36.02C17 36.02 15 36.02 15 31.02C15 29.3133 16.7639 26.3943 19 26.02C19.6644 25.9087 20.2275 26.3893 20.9304 26.9608C22.7233 28.4188 25.3471 28.4916 26.9883 26.8647C27.4986 26.3589 27.91 25.952 28.5 26.02C31.068 26.3159 33 29.2049 33 31.02Z" fill="white"/>
<path d="M41 19.5C40.7325 21.0045 40.4651 22.1736 39.3606 23.0074C38.0072 24.0291 36.0036 24.0368 34.6104 23.0701C33.5302 22.3206 33.2651 21.2397 33 19.5C33 17.0147 34.7909 15 37 15C39.2091 15 41 17.0147 41 19.5Z" fill="white"/>
<path d="M41.0302 32C43.0302 31 43.0303 30 43.0303 29C43.0303 26.7574 41.9999 25 40.4999 25C39.8481 25 39.5739 25.1889 39.3492 25.4435C38.5941 26.299 37.4124 26.35 36.3249 26.0043C35.3568 25.6967 34.423 25.4041 33.5836 25.3675C32.9005 25.3378 32.3863 25.9503 32.7151 26.5498C32.9384 26.9568 33.2913 27.3948 33.6766 27.8854C34.243 28.6066 34.6131 29.4553 34.8215 30.3483C35.0382 31.2769 35.1384 31.6385 35.4999 32C35.9999 32.5 39.1864 32.9219 41.0302 32Z" fill="white"/>
<path d="M7.00008 32C5.00008 31 4.99998 30 4.99998 29C4.99998 26.7574 6.03035 25 7.53035 25C8.18222 25 8.45635 25.1889 8.68105 25.4435C9.43612 26.299 10.6178 26.35 11.7053 26.0043C12.6734 25.6967 13.6073 25.4041 14.4466 25.3675C15.1298 25.3378 15.644 25.9503 15.3151 26.5498C15.0918 26.9568 14.739 27.3948 14.3537 27.8854C13.7872 28.6066 13.4172 29.4553 13.2088 30.3483C12.992 31.2769 12.8919 31.6385 12.5304 32C12.0304 32.5 8.8439 32.9219 7.00008 32Z" fill="white"/>
<path d="M7 19.5C7.26746 21.0045 7.53492 22.1736 8.63942 23.0074C9.99283 24.0291 11.9964 24.0368 13.3896 23.0701C14.4698 22.3206 14.7349 21.2397 15 19.5C15 17.0147 13.2091 15 11 15C8.79086 15 7 17.0147 7 19.5Z" fill="white"/>
</svg>
