<svg width="51" height="49" viewBox="0 0 51 49" fill="none" xmlns="http://www.w3.org/2000/svg">
<path d="M19.792 26.1595C8.85195 25.2323 3.07582 31.6055 1.46464 39.9413C0.955202 42.5769 2.56804 44.9981 5.19323 45.559C8.48639 46.2626 13.9616 47 22.4466 47C30.9315 47 36.4068 46.2626 39.6999 45.559C42.3251 44.9981 43.9379 42.5769 43.4285 39.9413C41.8173 31.6055 36.0412 25.2323 25.1012 26.1595C23.3358 26.3091 21.5574 26.3091 19.792 26.1595Z" fill="#67B2F1" stroke="#475885" stroke-width="1.8"/>
<path d="M39.7209 45.4302L26.1162 46.4767C26.1162 46.4767 29.4912 44.2267 32.1173 40.9639C34.0304 38.5869 35.2787 35.3507 34.0029 32.579C32.0055 28.2395 26.1162 26.0698 26.1162 26.0698L36.0581 28.1628L41.8139 34.9651L42.8604 42.2907L39.7209 45.4302Z" fill="#4A85F6"/>
<path d="M19.792 26.1595C8.85195 25.2323 3.07582 31.6055 1.46464 39.9413C0.955202 42.5769 2.56804 44.9981 5.19323 45.559C8.48639 46.2626 13.9616 47 22.4466 47C30.9315 47 36.4068 46.2626 39.6999 45.559C42.3251 44.9981 43.9379 42.5769 43.4285 39.9413C41.8173 31.6055 36.0412 25.2323 25.1012 26.1595C23.3358 26.3091 21.5574 26.3091 19.792 26.1595Z" stroke="#475885" stroke-width="2.3"/>
<path d="M17.6176 29.1285L17.5978 28.9085V22.7837H27.3094V28.9085L27.2895 29.1285C27.0666 31.6025 24.9861 33.5419 22.4536 33.5419C19.9211 33.5419 17.8405 31.6025 17.6176 29.1285Z" fill="white" stroke="#4C5D88" stroke-width="1.8"/>
<path d="M27.1629 25.0233L20.8838 27.6395L25.0698 33.9186L27.1629 31.3023V25.0233Z" fill="#E6E6E6"/>
<path d="M17.8666 29.1061L17.8478 28.8972V23.0337H27.0594V28.8972L27.0406 29.1061C26.8291 31.4524 24.8555 33.2919 22.4536 33.2919C20.0516 33.2919 18.078 31.4524 17.8666 29.1061Z" stroke="#4C5D88" stroke-width="2.3"/>
<path d="M32.3954 13.9913C32.3954 19.8802 29.6142 24.4982 25.4685 26.89C23.6145 27.9597 21.3016 27.9216 19.4799 26.7978C15.5617 24.3807 12.5117 19.8054 12.5117 13.9913C12.5117 6.76662 16.9628 2 22.4536 2C27.9443 2 32.3954 6.76662 32.3954 13.9913Z" fill="white"/>
<path d="M21.9302 22.407C26.0029 19.9939 27.1628 16.1984 27.1628 10.3721C27.1628 7.31343 25.251 4.00234 23.9143 2C28.6795 2.79818 32.3279 7.32428 32.3279 13.8651C32.3279 19.6915 29.6054 24.2737 25.5327 26.6868C23.6055 27.8287 21.1765 27.7878 19.283 26.5909C17.9358 25.7393 16.6952 24.6312 15.6511 23.3046C16.8868 23.4197 19.8372 23.6471 21.9302 22.407Z" fill="#E6E6E6"/>
<path d="M32.3954 13.9913C32.3954 19.8802 29.6142 24.4982 25.4685 26.89C23.6145 27.9597 21.3016 27.9216 19.4799 26.7978C15.5617 24.3807 12.5117 19.8054 12.5117 13.9913C12.5117 6.76662 16.9628 2 22.4536 2C27.9443 2 32.3954 6.76662 32.3954 13.9913Z" stroke="#4C5D88" stroke-width="2.3"/>
<path d="M42.0689 11.7013L49.6234 19.2559L42.2978 26.5815L34.7433 19.0269L34.3729 13.9947L37.0367 11.3309L42.0689 11.7013Z" fill="#9989CD" stroke="#544597" stroke-width="1.5"/>
<rect x="37.1699" y="15.593" width="2.07199" height="2.07199" transform="rotate(-45 37.1699 15.593)" fill="#544597"/>
</svg>
