<svg width="48" height="46" viewBox="0 0 48 46" fill="none" xmlns="http://www.w3.org/2000/svg">
<rect width="48" height="37" rx="6" fill="#6794F7"/>
<path d="M47.5 4.5L1 31C1 34.0376 3.46243 36.5 6.5 36.5H40.5C44.366 36.5 47.5 33.366 47.5 29.5V4.5Z" fill="#4A85F6"/>
<rect x="22" y="36" width="4" height="8" fill="black"/>
<rect x="1.15" y="1.15" width="45.7" height="34.7" rx="4.85" stroke="#33578C" stroke-width="2.3"/>
<path d="M32.6634 17.6548C33.2841 18.0473 33.2841 18.9527 32.6634 19.3452L19.7845 27.489C19.1186 27.91 18.25 27.4316 18.25 26.6438L18.25 10.3562C18.25 9.5684 19.1186 9.08996 19.7845 9.511L32.6634 17.6548Z" fill="white"/>
<path d="M22 44H9V46H39V44H26H22Z" fill="#5B616E"/>
</svg>
